<svg preserveAspectRatio="none" width="100%" height="100%" overflow="visible" style="display: block;" viewBox="0 0 11 11" fill="none" xmlns="http://www.w3.org/2000/svg">
<path id="Rectangle" fill-rule="evenodd" clip-rule="evenodd" d="M6.67776 0.640704L9.62123 3.58417C10.4755 4.43844 10.4755 5.82349 9.62123 6.67776L6.67776 9.62123C5.82349 10.4755 4.43844 10.4755 3.58417 9.62123L0.640704 6.67776C-0.213566 5.82349 -0.21357 4.43844 0.640704 3.58417L3.58417 0.640704C4.43844 -0.213566 5.82349 -0.21357 6.67776 0.640704ZM5.44033 1.87814C5.26947 1.70729 4.99246 1.70729 4.82161 1.87814L1.87814 4.82161C1.70729 4.99246 1.70729 5.26947 1.87814 5.44033L4.82161 8.38379C4.99246 8.55465 5.26947 8.55465 5.44033 8.38379L8.38379 5.44032C8.55465 5.26947 8.55465 4.99246 8.38379 4.82161L5.44033 1.87814Z" fill="var(--fill-0, black)"/>
</svg>
