<svg preserveAspectRatio="none" width="100%" height="100%" overflow="visible" style="display: block;" viewBox="0 0 15 15" fill="none" xmlns="http://www.w3.org/2000/svg">
<g id="Group">
<path id="Vector" d="M11.1667 5.83334H7.83335" stroke="var(--stroke-0, #777777)" stroke-linecap="round"/>
<path id="Vector_2" d="M0.500011 3.80001C0.500011 3.21134 0.500011 2.91734 0.546678 2.67201C0.64616 2.14524 0.902102 1.66068 1.28111 1.28155C1.66012 0.902419 2.1446 0.646326 2.67134 0.546678C2.91734 0.500011 3.21201 0.500011 3.80001 0.500011C4.05734 0.500011 4.18668 0.500011 4.31068 0.511344C4.84471 0.561498 5.3512 0.77153 5.76401 1.11401C5.86001 1.19334 5.95068 1.28401 6.13334 1.46668L6.50001 1.83334C7.04401 2.37734 7.31601 2.64934 7.64134 2.83001C7.82016 2.92967 8.00985 3.00841 8.20668 3.06468C8.56534 3.16668 8.95001 3.16668 9.71868 3.16668H9.96801C11.7227 3.16668 12.6007 3.16668 13.1707 3.68001C13.2236 3.72668 13.2733 3.77646 13.32 3.82934C13.8333 4.39934 13.8333 5.27734 13.8333 7.03201V8.50001C13.8333 11.014 13.8333 12.2713 13.052 13.052C12.2707 13.8327 11.014 13.8333 8.50001 13.8333H5.83334C3.31934 13.8333 2.06201 13.8333 1.28134 13.052C0.500678 12.2707 0.500011 11.014 0.500011 8.50001V3.80001Z" stroke="var(--stroke-0, #777777)"/>
</g>
</svg>
