<svg preserveAspectRatio="none" width="100%" height="100%" overflow="visible" style="display: block;" viewBox="0 0 16 16" fill="none" xmlns="http://www.w3.org/2000/svg">
<g id="si:arrow-right-fill">
<path id="Vector" d="M9.80467 4.862C9.74317 4.79833 9.66961 4.74754 9.58827 4.7126C9.50693 4.67766 9.41945 4.65927 9.33093 4.6585C9.24241 4.65773 9.15463 4.6746 9.0727 4.70812C8.99077 4.74164 8.91633 4.79114 8.85374 4.85374C8.79114 4.91633 8.74164 4.99077 8.70812 5.0727C8.6746 5.15463 8.65773 5.24241 8.6585 5.33093C8.65927 5.41945 8.67766 5.50693 8.7126 5.58827C8.74754 5.66961 8.79833 5.74317 8.862 5.80467L10.3907 7.33333H4C3.82319 7.33333 3.65362 7.40357 3.5286 7.5286C3.40357 7.65362 3.33333 7.82319 3.33333 8C3.33333 8.17681 3.40357 8.34638 3.5286 8.4714C3.65362 8.59643 3.82319 8.66667 4 8.66667H10.3907L8.862 10.1953C8.74056 10.3211 8.67337 10.4895 8.67488 10.6643C8.6764 10.8391 8.74652 11.0063 8.87012 11.1299C8.99373 11.2535 9.16094 11.3236 9.33573 11.3251C9.51053 11.3266 9.67893 11.2594 9.80467 11.138L12.4713 8.47133C12.5963 8.34631 12.6665 8.17678 12.6665 8C12.6665 7.82322 12.5963 7.65369 12.4713 7.52867L9.80467 4.862Z" fill="var(--fill-0, #777777)"/>
</g>
</svg>
