<svg preserveAspectRatio="none" width="100%" height="100%" overflow="visible" style="display: block;" viewBox="0 0 21 21" fill="none" xmlns="http://www.w3.org/2000/svg">
<path id="Union" fill-rule="evenodd" clip-rule="evenodd" d="M13.125 0.875C13.125 0.391751 13.5168 0 14 0H17.5C19.433 0 21 1.567 21 3.5V7C21 7.48325 20.6082 7.875 20.125 7.875C19.6418 7.875 19.25 7.48325 19.25 7V3.5C19.25 2.5335 18.4665 1.75 17.5 1.75H14C13.5168 1.75 13.125 1.35825 13.125 0.875ZM7.875 20.125C7.875 20.6082 7.48325 21 7 21H3.5C1.567 21 0 19.433 0 17.5V14C0 13.5168 0.391751 13.125 0.875001 13.125C1.35825 13.125 1.75 13.5168 1.75 14L1.75 17.5C1.75 18.4665 2.5335 19.25 3.5 19.25H7C7.48325 19.25 7.875 19.6418 7.875 20.125ZM0 7C0 7.48325 0.391751 7.875 0.875 7.875C1.35825 7.875 1.75 7.48325 1.75 7L1.75 3.5C1.75 2.5335 2.5335 1.75 3.5 1.75L7 1.75C7.48325 1.75 7.875 1.35825 7.875 0.875C7.875 0.391751 7.48325 0 7 0H3.5C1.567 0 0 1.567 0 3.5V7ZM20.125 13.125C20.6082 13.125 21 13.5168 21 14V17.5C21 19.433 19.433 21 17.5 21H14C13.5168 21 13.125 20.6082 13.125 20.125C13.125 19.6418 13.5168 19.25 14 19.25H17.5C18.4665 19.25 19.25 18.4665 19.25 17.5V14C19.25 13.5168 19.6418 13.125 20.125 13.125ZM10.8094 7.30936C10.6385 7.1385 10.3615 7.13851 10.1906 7.30936L7.24718 10.2528C7.07632 10.4237 7.07632 10.7007 7.24718 10.8715L10.1906 13.815C10.3615 13.9859 10.6385 13.9859 10.8094 13.815L13.7528 10.8715C13.9237 10.7007 13.9237 10.4237 13.7528 10.2528L10.8094 7.30936Z" fill="var(--fill-0, black)" fill-opacity="0.04"/>
</svg>
