<svg preserveAspectRatio="none" width="100%" height="100%" overflow="visible" style="display: block;" viewBox="0 0 113 161" fill="none" xmlns="http://www.w3.org/2000/svg">
<path id="pie1" d="M0.154796 7.48231C-0.496818 5.02157 0.966639 2.48575 3.45687 1.95791C22.3263 -2.04176 42.0244 0.113424 59.642 8.17659C78.6596 16.8805 94.0743 31.9293 103.255 50.7548C112.436 69.5802 114.815 91.0156 109.985 111.403C105.511 130.285 95.1103 147.184 80.3746 159.65C78.4266 161.298 75.5184 160.894 73.9768 158.861L63.1611 144.597C61.6242 142.57 62.0311 139.694 63.9371 138.01C73.7049 129.378 80.6044 117.902 83.6303 105.13C87.0114 90.8595 85.3465 75.8547 78.9198 62.6769C72.4931 49.4991 61.7028 38.9649 48.3905 32.8722C36.4825 27.4222 23.2167 25.8281 10.4264 28.2454C7.9211 28.7189 5.39435 27.2689 4.7417 24.8042L0.154796 7.48231Z" fill="var(--fill-0, #479C39)"/>
</svg>
