<svg preserveAspectRatio="none" width="100%" height="100%" overflow="visible" style="display: block;" viewBox="0 0 15 13" fill="none" xmlns="http://www.w3.org/2000/svg">
<g id="Group">
<path id="Vector" d="M5.83333 6.5H8.5M5.83333 3.83333H8.5M8.5 12.5V10.5C8.5 10.1464 8.35952 9.80724 8.10948 9.55719C7.85943 9.30714 7.52029 9.16667 7.16667 9.16667C6.81304 9.16667 6.47391 9.30714 6.22386 9.55719C5.97381 9.80724 5.83333 10.1464 5.83333 10.5V12.5" stroke="var(--stroke-0, #777777)" stroke-linecap="round" stroke-linejoin="round"/>
<path id="Vector_2" d="M3.16667 5.16667H1.83333C1.47971 5.16667 1.14057 5.30714 0.890524 5.55719C0.640476 5.80724 0.5 6.14638 0.5 6.5V11.1667C0.5 11.5203 0.640476 11.8594 0.890524 12.1095C1.14057 12.3595 1.47971 12.5 1.83333 12.5H12.5C12.8536 12.5 13.1928 12.3595 13.4428 12.1095C13.6929 11.8594 13.8333 11.5203 13.8333 11.1667V4.5C13.8333 4.14638 13.6929 3.80724 13.4428 3.55719C13.1928 3.30714 12.8536 3.16667 12.5 3.16667H11.1667" stroke="var(--stroke-0, #777777)" stroke-linecap="round" stroke-linejoin="round"/>
<path id="Vector_3" d="M3.16667 12.5V1.83333C3.16667 1.47971 3.30714 1.14057 3.55719 0.890524C3.80724 0.640476 4.14638 0.5 4.5 0.5H9.83333C10.187 0.5 10.5261 0.640476 10.7761 0.890524C11.0262 1.14057 11.1667 1.47971 11.1667 1.83333V12.5" stroke="var(--stroke-0, #777777)" stroke-linecap="round" stroke-linejoin="round"/>
</g>
</svg>
