<svg preserveAspectRatio="none" width="100%" height="100%" overflow="visible" style="display: block;" viewBox="0 0 24 24" fill="none" xmlns="http://www.w3.org/2000/svg">
<g id="solar:folder-outline">
<path id="Vector" fill-rule="evenodd" clip-rule="evenodd" d="M6.86 1.25H6.987C7.338 1.25 7.564 1.25 7.785 1.27C8.73662 1.35895 9.63928 1.73291 10.375 2.343C10.545 2.485 10.705 2.645 10.954 2.893L11.53 3.47C12.376 4.315 12.701 4.631 13.077 4.84C13.2957 4.96133 13.5253 5.05667 13.766 5.126C14.179 5.243 14.632 5.25 15.828 5.25H16.253C17.526 5.25 18.553 5.25 19.364 5.352C20.205 5.458 20.92 5.684 21.508 6.212C21.606 6.30067 21.6993 6.394 21.788 6.492C22.317 7.08 22.542 7.795 22.648 8.636C22.75 9.448 22.75 10.474 22.75 11.747V14.057C22.75 15.894 22.75 17.35 22.597 18.489C22.439 19.661 22.107 20.61 21.359 21.359C20.61 22.107 19.661 22.439 18.489 22.597C17.349 22.75 15.894 22.75 14.056 22.75H9.944C8.106 22.75 6.65 22.75 5.511 22.597C4.339 22.439 3.39 22.107 2.641 21.359C1.893 20.61 1.561 19.661 1.403 18.489C1.25 17.349 1.25 15.894 1.25 14.056V6.86C1.25 6.063 1.25 5.557 1.332 5.12C1.50884 4.18062 1.96499 3.31645 2.6408 2.64046C3.31662 1.96446 4.18067 1.50809 5.12 1.331C5.558 1.249 6.064 1.249 6.86 1.249M6.95 2.749C6.033 2.749 5.679 2.752 5.397 2.805C4.75483 2.92639 4.16417 3.23857 3.70213 3.70079C3.2401 4.163 2.92815 4.75378 2.807 5.396C2.753 5.678 2.75 6.032 2.75 6.949V14C2.75 15.907 2.752 17.262 2.89 18.29C3.025 19.295 3.279 19.875 3.702 20.298C4.125 20.721 4.705 20.975 5.711 21.11C6.739 21.248 8.093 21.25 10 21.25H14C15.907 21.25 17.262 21.248 18.29 21.11C19.295 20.975 19.875 20.721 20.298 20.298C20.721 19.875 20.975 19.295 21.11 18.289C21.248 17.262 21.25 15.907 21.25 14V11.798C21.25 10.462 21.249 9.531 21.16 8.823C21.073 8.134 20.914 7.763 20.673 7.495C20.6204 7.43572 20.5643 7.37962 20.505 7.327C20.237 7.086 19.865 6.927 19.177 6.84C18.47 6.751 17.538 6.75 16.202 6.75H15.718C14.67 6.75 13.994 6.75 13.355 6.568C13.005 6.468 12.666 6.328 12.347 6.151C11.767 5.827 11.289 5.35 10.547 4.608L10.47 4.53L9.92 3.98C9.75941 3.81211 9.59159 3.65129 9.417 3.498C8.9139 3.08083 8.29671 2.82503 7.646 2.764C7.41431 2.74924 7.18209 2.74357 6.95 2.749ZM12.25 10C12.25 9.80109 12.329 9.61032 12.4697 9.46967C12.6103 9.32902 12.8011 9.25 13 9.25H18C18.1989 9.25 18.3897 9.32902 18.5303 9.46967C18.671 9.61032 18.75 9.80109 18.75 10C18.75 10.1989 18.671 10.3897 18.5303 10.5303C18.3897 10.671 18.1989 10.75 18 10.75H13C12.8011 10.75 12.6103 10.671 12.4697 10.5303C12.329 10.3897 12.25 10.1989 12.25 10Z" fill="var(--fill-0, #1B59F8)"/>
</g>
</svg>
