<svg preserveAspectRatio="none" width="100%" height="100%" overflow="visible" style="display: block;" viewBox="0 0 15 15" fill="none" xmlns="http://www.w3.org/2000/svg">
<g id="uiw:user-add" clip-path="url(#clip0_653_59634)">
<path id="Vector" d="M7.10034 0C9.48834 0 11.4241 1.9245 11.4241 4.299C11.4246 4.92123 11.2894 5.53609 11.0277 6.10063C10.766 6.66517 10.3843 7.16578 9.90909 7.5675C10.1116 7.6675 10.2961 7.76825 10.4626 7.86975C10.8206 8.08725 11.1931 8.357 11.5801 8.679C11.6323 8.72232 11.6754 8.77554 11.7069 8.8356C11.7384 8.89566 11.7578 8.96137 11.7638 9.02894C11.7697 9.0965 11.7623 9.16459 11.7419 9.22926C11.7214 9.29393 11.6883 9.35392 11.6446 9.40575C11.556 9.51094 11.4293 9.57678 11.2923 9.58886C11.1553 9.60095 11.019 9.55831 10.9133 9.47025C10.6011 9.206 10.2697 8.96534 9.92184 8.75025C9.58361 8.54961 9.23146 8.37341 8.86809 8.223C8.31159 8.47036 7.70934 8.59812 7.10034 8.598C6.42897 8.5981 5.76668 8.4428 5.16534 8.14425L5.13384 8.15925C3.67134 8.72625 2.60409 9.56475 1.91484 10.6778C1.22334 11.7945 0.940591 13.0425 1.06734 14.4382C1.07898 14.5749 1.03592 14.7105 0.947605 14.8155C0.859294 14.9204 0.732957 14.9859 0.596341 14.9977C0.459811 15.0103 0.323895 14.9681 0.218433 14.8805C0.11297 14.7929 0.046581 14.667 0.0338407 14.5305C-0.112409 12.9165 0.220591 11.4457 1.03134 10.137C1.74384 8.985 2.79159 8.0895 4.16184 7.4505C3.72525 7.04984 3.37672 6.56278 3.13838 6.02026C2.90004 5.47773 2.77709 4.89157 2.77734 4.299C2.77734 1.9245 4.71234 0 7.10034 0ZM12.6511 9.51975C12.9361 9.51975 13.1671 9.75225 13.1671 10.038V11.352H14.4811C14.5491 11.3518 14.6165 11.365 14.6794 11.3909C14.7423 11.4168 14.7995 11.4548 14.8477 11.5028C14.8959 11.5508 14.9342 11.6078 14.9603 11.6706C14.9865 11.7334 15 11.8007 15.0001 11.8687C14.9995 12.0059 14.9445 12.1371 14.8472 12.2338C14.7499 12.3304 14.6182 12.3844 14.4811 12.384H13.1671V13.6987C13.1673 13.8359 13.1131 13.9675 13.0163 14.0646C12.9196 14.1618 12.7882 14.2166 12.6511 14.217C12.514 14.2166 12.3826 14.1618 12.2859 14.0646C12.1891 13.9675 12.1349 13.8359 12.1351 13.6987V12.384H10.8211C10.684 12.3844 10.5523 12.3304 10.455 12.2338C10.3577 12.1371 10.3027 12.0059 10.3021 11.8687C10.3021 11.5837 10.5346 11.3528 10.8211 11.3528L12.1351 11.352V10.038C12.1349 9.90088 12.1891 9.76929 12.2859 9.67212C12.3826 9.57495 12.514 9.52015 12.6511 9.51975ZM7.10109 1.032C5.28609 1.032 3.81459 2.4945 3.81459 4.299C3.81459 6.1035 5.28609 7.56675 7.10034 7.56675C8.91459 7.56675 10.3861 6.10425 10.3861 4.299C10.3861 2.49375 8.91534 1.032 7.10109 1.032Z" fill="var(--fill-0, #040110)"/>
</g>
<defs>
<clipPath id="clip0_653_59634">
<rect width="15" height="15" fill="white"/>
</clipPath>
</defs>
</svg>
