<svg preserveAspectRatio="none" width="100%" height="100%" overflow="visible" style="display: block;" viewBox="0 0 26 25" fill="none" xmlns="http://www.w3.org/2000/svg">
<g id="Group">
<path id="Vector" d="M0.875001 11.9583C0.875001 7.55883 0.875001 5.3585 2.24233 3.99233C3.60967 2.62617 5.80883 2.625 10.2083 2.625H14.875C19.2745 2.625 21.4748 2.625 22.841 3.99233C24.2072 5.35967 24.2083 7.55883 24.2083 11.9583V14.2917C24.2083 18.6912 24.2083 20.8915 22.841 22.2577C21.4737 23.6238 19.2745 23.625 14.875 23.625H10.2083C5.80883 23.625 3.6085 23.625 2.24233 22.2577C0.876167 20.8903 0.875001 18.6912 0.875001 14.2917V11.9583Z" stroke="var(--stroke-0, #717680)" stroke-width="1.75"/>
<path id="Vector_2" d="M6.70833 2.625V0.875M18.375 2.625V0.875M1.45833 8.45833H23.625" stroke="var(--stroke-0, #717680)" stroke-width="1.75" stroke-linecap="round"/>
<path id="Vector_3" d="M19.5417 17.7917C19.5417 18.1011 19.4188 18.3978 19.2 18.6166C18.9812 18.8354 18.6844 18.9583 18.375 18.9583C18.0656 18.9583 17.7688 18.8354 17.55 18.6166C17.3312 18.3978 17.2083 18.1011 17.2083 17.7917C17.2083 17.4822 17.3312 17.1855 17.55 16.9667C17.7688 16.7479 18.0656 16.625 18.375 16.625C18.6844 16.625 18.9812 16.7479 19.2 16.9667C19.4188 17.1855 19.5417 17.4822 19.5417 17.7917ZM19.5417 13.125C19.5417 13.4344 19.4188 13.7312 19.2 13.95C18.9812 14.1687 18.6844 14.2917 18.375 14.2917C18.0656 14.2917 17.7688 14.1687 17.55 13.95C17.3312 13.7312 17.2083 13.4344 17.2083 13.125C17.2083 12.8156 17.3312 12.5188 17.55 12.3C17.7688 12.0812 18.0656 11.9583 18.375 11.9583C18.6844 11.9583 18.9812 12.0812 19.2 12.3C19.4188 12.5188 19.5417 12.8156 19.5417 13.125ZM13.7083 17.7917C13.7083 18.1011 13.5854 18.3978 13.3666 18.6166C13.1478 18.8354 12.8511 18.9583 12.5417 18.9583C12.2322 18.9583 11.9355 18.8354 11.7167 18.6166C11.4979 18.3978 11.375 18.1011 11.375 17.7917C11.375 17.4822 11.4979 17.1855 11.7167 16.9667C11.9355 16.7479 12.2322 16.625 12.5417 16.625C12.8511 16.625 13.1478 16.7479 13.3666 16.9667C13.5854 17.1855 13.7083 17.4822 13.7083 17.7917ZM13.7083 13.125C13.7083 13.4344 13.5854 13.7312 13.3666 13.95C13.1478 14.1687 12.8511 14.2917 12.5417 14.2917C12.2322 14.2917 11.9355 14.1687 11.7167 13.95C11.4979 13.7312 11.375 13.4344 11.375 13.125C11.375 12.8156 11.4979 12.5188 11.7167 12.3C11.9355 12.0812 12.2322 11.9583 12.5417 11.9583C12.8511 11.9583 13.1478 12.0812 13.3666 12.3C13.5854 12.5188 13.7083 12.8156 13.7083 13.125ZM7.875 17.7917C7.875 18.1011 7.75208 18.3978 7.53329 18.6166C7.3145 18.8354 7.01775 18.9583 6.70833 18.9583C6.39891 18.9583 6.10217 18.8354 5.88338 18.6166C5.66458 18.3978 5.54167 18.1011 5.54167 17.7917C5.54167 17.4822 5.66458 17.1855 5.88338 16.9667C6.10217 16.7479 6.39891 16.625 6.70833 16.625C7.01775 16.625 7.3145 16.7479 7.53329 16.9667C7.75208 17.1855 7.875 17.4822 7.875 17.7917ZM7.875 13.125C7.875 13.4344 7.75208 13.7312 7.53329 13.95C7.3145 14.1687 7.01775 14.2917 6.70833 14.2917C6.39891 14.2917 6.10217 14.1687 5.88338 13.95C5.66458 13.7312 5.54167 13.4344 5.54167 13.125C5.54167 12.8156 5.66458 12.5188 5.88338 12.3C6.10217 12.0812 6.39891 11.9583 6.70833 11.9583C7.01775 11.9583 7.3145 12.0812 7.53329 12.3C7.75208 12.5188 7.875 12.8156 7.875 13.125Z" fill="var(--fill-0, #717680)"/>
</g>
</svg>
