<svg preserveAspectRatio="none" width="100%" height="100%" overflow="visible" style="display: block;" viewBox="0 0 16 16" fill="none" xmlns="http://www.w3.org/2000/svg">
<g id="Icons">
<path id="Vector" d="M6.66699 9.00033H9.33301C10.4822 9.00033 11.5848 9.45632 12.3975 10.2689C13.2101 11.0815 13.667 12.1841 13.667 13.3333V13.6663H13V13.3333C13 12.3609 12.6134 11.4282 11.9258 10.7406C11.2382 10.053 10.3054 9.66634 9.33301 9.66634H6.66699C5.69461 9.66634 4.76184 10.053 4.07422 10.7406C3.38659 11.4282 3 12.3609 3 13.3333V13.6663H2.33301V13.3333C2.33301 12.1841 2.78988 11.0815 3.60254 10.2689C4.41518 9.45632 5.5178 9.00033 6.66699 9.00033ZM8 1.66634C8.79557 1.66634 9.5585 1.98274 10.1211 2.54525C10.6836 3.10778 10.9999 3.87081 11 4.66634C11 5.25969 10.8238 5.83999 10.4941 6.33333C10.1646 6.82649 9.69637 7.21075 9.14844 7.43783C8.60033 7.66486 7.99691 7.72442 7.41504 7.60872C6.83325 7.493 6.29841 7.20779 5.87891 6.78841C5.45943 6.36893 5.17341 5.8341 5.05762 5.25228C4.94187 4.6704 5.00151 4.06701 5.22852 3.51888C5.45555 2.97076 5.83974 2.50184 6.33301 2.1722C6.82636 1.84256 7.40666 1.66634 8 1.66634ZM8.89258 2.51107C8.46632 2.33457 7.99742 2.28827 7.54492 2.37826C7.0923 2.46829 6.67593 2.6906 6.34961 3.01693C6.02353 3.34314 5.80195 3.75889 5.71191 4.21126C5.62188 4.66389 5.66812 5.13353 5.84473 5.5599C6.02135 5.98608 6.32051 6.35046 6.7041 6.60677C7.08775 6.86303 7.53863 7.00033 8 7.00033C8.61884 7.00033 9.21281 6.75432 9.65039 6.31673C10.0879 5.87916 10.333 5.2851 10.333 4.66634C10.3329 4.20506 10.1967 3.75402 9.94043 3.37044C9.68404 2.98673 9.31894 2.68767 8.89258 2.51107Z" fill="var(--fill-0, #717182)" stroke="var(--stroke-0, #717182)" stroke-width="0.666667"/>
</g>
</svg>
