<svg preserveAspectRatio="none" width="100%" height="100%" overflow="visible" style="display: block;" viewBox="0 0 17 18" fill="none" xmlns="http://www.w3.org/2000/svg">
<g id="Group">
<path id="Vector" d="M13.7492 7.05V6.4625C13.7492 3.23833 11.2292 0.625 8.12416 0.625C5.01916 0.625 2.49916 3.23833 2.49916 6.4625V7.05C2.50016 7.75129 2.30003 8.43817 1.92249 9.02917L0.999161 10.4667C0.156661 11.7792 0.799995 13.5633 2.26583 13.9783C6.09607 15.063 10.1523 15.063 13.9825 13.9783C15.4483 13.5633 16.0917 11.7792 15.2492 10.4675L14.3258 9.03C13.948 8.43909 13.7476 7.75221 13.7483 7.05083L13.7492 7.05Z" stroke="var(--stroke-0, white)" stroke-width="1.25"/>
<path id="Vector_2" opacity="0.5" d="M4.37416 14.7917C4.91999 16.2483 6.39249 17.2917 8.12416 17.2917C9.85583 17.2917 11.3283 16.2483 11.8742 14.7917" stroke="var(--stroke-0, white)" stroke-width="1.25" stroke-linecap="round"/>
</g>
</svg>
