<svg preserveAspectRatio="none" width="100%" height="100%" overflow="visible" style="display: block;" viewBox="0 0 6 6" fill="none" xmlns="http://www.w3.org/2000/svg">
<path id="Union" d="M4.92635 0.184162C5.1719 -0.0613873 5.57045 -0.0613873 5.816 0.184162C6.06129 0.429605 6.06115 0.827302 5.816 1.07283L3.88826 2.99959L5.816 4.92635C6.06155 5.1719 6.06155 5.57045 5.816 5.816C5.57045 6.06155 5.1719 6.06155 4.92635 5.816L2.99959 3.88826L1.07283 5.816C0.827302 6.06115 0.429605 6.06129 0.184162 5.816C-0.0613873 5.57045 -0.0613873 5.1719 0.184162 4.92635L2.10994 2.99959L0.184162 1.07283C-0.0611749 0.827267 -0.0613165 0.42964 0.184162 0.184162C0.42964 -0.0613165 0.827267 -0.0611749 1.07283 0.184162L2.99959 2.10994L4.92635 0.184162Z" fill="var(--fill-0, white)"/>
</svg>
