<svg preserveAspectRatio="none" width="100%" height="100%" overflow="visible" style="display: block;" viewBox="0 0 16 16" fill="none" xmlns="http://www.w3.org/2000/svg">
<g id="mynaui:filter-solid">
<path id="Vector" d="M2.5 4.66667C2.5 4.53406 2.55268 4.40688 2.64645 4.31311C2.74021 4.21935 2.86739 4.16667 3 4.16667H13C13.1326 4.16667 13.2598 4.21935 13.3536 4.31311C13.4473 4.40688 13.5 4.53406 13.5 4.66667C13.5 4.79928 13.4473 4.92645 13.3536 5.02022C13.2598 5.11399 13.1326 5.16667 13 5.16667H3C2.86739 5.16667 2.74021 5.11399 2.64645 5.02022C2.55268 4.92645 2.5 4.79928 2.5 4.66667ZM4.16667 8C4.16667 7.86739 4.21935 7.74022 4.31311 7.64645C4.40688 7.55268 4.53406 7.5 4.66667 7.5H11.3333C11.4659 7.5 11.5931 7.55268 11.6869 7.64645C11.7807 7.74022 11.8333 7.86739 11.8333 8C11.8333 8.13261 11.7807 8.25979 11.6869 8.35355C11.5931 8.44732 11.4659 8.5 11.3333 8.5H4.66667C4.53406 8.5 4.40688 8.44732 4.31311 8.35355C4.21935 8.25979 4.16667 8.13261 4.16667 8ZM6.16667 11.3333C6.16667 11.2007 6.21935 11.0735 6.31311 10.9798C6.40688 10.886 6.53406 10.8333 6.66667 10.8333H9.33333C9.46594 10.8333 9.59312 10.886 9.68689 10.9798C9.78065 11.0735 9.83333 11.2007 9.83333 11.3333C9.83333 11.4659 9.78065 11.5931 9.68689 11.6869C9.59312 11.7807 9.46594 11.8333 9.33333 11.8333H6.66667C6.53406 11.8333 6.40688 11.7807 6.31311 11.6869C6.21935 11.5931 6.16667 11.4659 6.16667 11.3333Z" fill="var(--fill-0, #777777)"/>
</g>
</svg>
