<svg preserveAspectRatio="none" width="100%" height="100%" overflow="visible" style="display: block;" viewBox="0 0 15 14" fill="none" xmlns="http://www.w3.org/2000/svg">
<g id="Group">
<path id="Vector" d="M0.5 6.83333C0.5 4.31933 0.5 3.062 1.28133 2.28133C2.06267 1.50067 3.31933 1.5 5.83333 1.5H8.5C11.014 1.5 12.2713 1.5 13.052 2.28133C13.8327 3.06267 13.8333 4.31933 13.8333 6.83333V8.16667C13.8333 10.6807 13.8333 11.938 13.052 12.7187C12.2707 13.4993 11.014 13.5 8.5 13.5H5.83333C3.31933 13.5 2.062 13.5 1.28133 12.7187C0.500667 11.9373 0.5 10.6807 0.5 8.16667V6.83333Z" stroke="var(--stroke-0, black)"/>
<path id="Vector_2" d="M3.83333 1.5V0.5M10.5 1.5V0.5M0.833334 4.83333H13.5" stroke="var(--stroke-0, black)" stroke-linecap="round"/>
<path id="Vector_3" d="M11.1667 10.1667C11.1667 10.3435 11.0964 10.513 10.9714 10.6381C10.8464 10.7631 10.6768 10.8333 10.5 10.8333C10.3232 10.8333 10.1536 10.7631 10.0286 10.6381C9.90357 10.513 9.83333 10.3435 9.83333 10.1667C9.83333 9.98986 9.90357 9.82029 10.0286 9.69526C10.1536 9.57024 10.3232 9.5 10.5 9.5C10.6768 9.5 10.8464 9.57024 10.9714 9.69526C11.0964 9.82029 11.1667 9.98986 11.1667 10.1667ZM11.1667 7.5C11.1667 7.67681 11.0964 7.84638 10.9714 7.9714C10.8464 8.09643 10.6768 8.16667 10.5 8.16667C10.3232 8.16667 10.1536 8.09643 10.0286 7.9714C9.90357 7.84638 9.83333 7.67681 9.83333 7.5C9.83333 7.32319 9.90357 7.15362 10.0286 7.0286C10.1536 6.90357 10.3232 6.83333 10.5 6.83333C10.6768 6.83333 10.8464 6.90357 10.9714 7.0286C11.0964 7.15362 11.1667 7.32319 11.1667 7.5ZM7.83333 10.1667C7.83333 10.3435 7.7631 10.513 7.63807 10.6381C7.51305 10.7631 7.34348 10.8333 7.16667 10.8333C6.98986 10.8333 6.82029 10.7631 6.69526 10.6381C6.57024 10.513 6.5 10.3435 6.5 10.1667C6.5 9.98986 6.57024 9.82029 6.69526 9.69526C6.82029 9.57024 6.98986 9.5 7.16667 9.5C7.34348 9.5 7.51305 9.57024 7.63807 9.69526C7.7631 9.82029 7.83333 9.98986 7.83333 10.1667ZM7.83333 7.5C7.83333 7.67681 7.7631 7.84638 7.63807 7.9714C7.51305 8.09643 7.34348 8.16667 7.16667 8.16667C6.98986 8.16667 6.82029 8.09643 6.69526 7.9714C6.57024 7.84638 6.5 7.67681 6.5 7.5C6.5 7.32319 6.57024 7.15362 6.69526 7.0286C6.82029 6.90357 6.98986 6.83333 7.16667 6.83333C7.34348 6.83333 7.51305 6.90357 7.63807 7.0286C7.7631 7.15362 7.83333 7.32319 7.83333 7.5ZM4.5 10.1667C4.5 10.3435 4.42976 10.513 4.30474 10.6381C4.17971 10.7631 4.01015 10.8333 3.83333 10.8333C3.65652 10.8333 3.48695 10.7631 3.36193 10.6381C3.23691 10.513 3.16667 10.3435 3.16667 10.1667C3.16667 9.98986 3.23691 9.82029 3.36193 9.69526C3.48695 9.57024 3.65652 9.5 3.83333 9.5C4.01015 9.5 4.17971 9.57024 4.30474 9.69526C4.42976 9.82029 4.5 9.98986 4.5 10.1667ZM4.5 7.5C4.5 7.67681 4.42976 7.84638 4.30474 7.9714C4.17971 8.09643 4.01015 8.16667 3.83333 8.16667C3.65652 8.16667 3.48695 8.09643 3.36193 7.9714C3.23691 7.84638 3.16667 7.67681 3.16667 7.5C3.16667 7.32319 3.23691 7.15362 3.36193 7.0286C3.48695 6.90357 3.65652 6.83333 3.83333 6.83333C4.01015 6.83333 4.17971 6.90357 4.30474 7.0286C4.42976 7.15362 4.5 7.32319 4.5 7.5Z" fill="var(--fill-0, black)"/>
</g>
</svg>
