<svg preserveAspectRatio="none" width="100%" height="100%" overflow="visible" style="display: block;" viewBox="0 0 24 24" fill="none" xmlns="http://www.w3.org/2000/svg">
<g id="uiw:user-add" clip-path="url(#clip0_668_59676)">
<path id="Vector" d="M11.3603 0C15.1811 0 18.2783 3.0792 18.2783 6.8784C18.2792 7.87397 18.0628 8.85774 17.6441 9.76101C17.2254 10.6643 16.6146 11.4652 15.8543 12.108C16.1783 12.268 16.4735 12.4292 16.7399 12.5916C17.3127 12.9396 17.9087 13.3712 18.5279 13.8864C18.6114 13.9557 18.6804 14.0409 18.7309 14.137C18.7813 14.2331 18.8122 14.3382 18.8218 14.4463C18.8314 14.5544 18.8195 14.6633 18.7868 14.7668C18.754 14.8703 18.7011 14.9663 18.6311 15.0492C18.4893 15.2175 18.2867 15.3228 18.0674 15.3422C17.8482 15.3615 17.6302 15.2933 17.4611 15.1524C16.9616 14.7296 16.4314 14.3445 15.8747 14.0004C15.3336 13.6794 14.7701 13.3975 14.1887 13.1568C13.2983 13.5526 12.3347 13.757 11.3603 13.7568C10.2861 13.757 9.22648 13.5085 8.26433 13.0308L8.21393 13.0548C5.87393 13.962 4.16633 15.3036 3.06353 17.0844C1.95713 18.8712 1.50473 20.868 1.70753 23.1012C1.72615 23.3198 1.65725 23.5369 1.51595 23.7047C1.37465 23.8726 1.17251 23.9775 0.953928 23.9964C0.735481 24.0164 0.518015 23.9489 0.349275 23.8088C0.180535 23.6686 0.0743121 23.4672 0.0539275 23.2488C-0.180073 20.6664 0.352728 18.3132 1.64993 16.2192C2.78993 14.376 4.46633 12.9432 6.65873 11.9208C5.96018 11.2797 5.40254 10.5005 5.02119 9.63241C4.63985 8.76436 4.44313 7.82652 4.44353 6.8784C4.44353 3.0792 7.53953 0 11.3603 0ZM20.2415 15.2316C20.6975 15.2316 21.0671 15.6036 21.0671 16.0608V18.1632H23.1695C23.2784 18.1629 23.3862 18.184 23.4869 18.2254C23.5875 18.2668 23.679 18.3277 23.7561 18.4044C23.8333 18.4812 23.8945 18.5725 23.9363 18.673C23.9782 18.7734 23.9998 18.8812 23.9999 18.99C23.999 19.2094 23.911 19.4194 23.7553 19.574C23.5996 19.7286 23.3889 19.815 23.1695 19.8144H21.0671V21.918C21.0674 22.1374 20.9807 22.3479 20.8259 22.5034C20.6711 22.6589 20.4609 22.7466 20.2415 22.7472C20.0221 22.7466 19.812 22.6589 19.6572 22.5034C19.5024 22.3479 19.4156 22.1374 19.4159 21.918V19.8144H17.3135C17.0941 19.815 16.8835 19.7286 16.7278 19.574C16.5721 19.4194 16.4841 19.2094 16.4831 18.99C16.4831 18.534 16.8551 18.1644 17.3135 18.1644L19.4159 18.1632V16.0608C19.4156 15.8414 19.5024 15.6309 19.6572 15.4754C19.812 15.3199 20.0221 15.2322 20.2415 15.2316ZM11.3615 1.6512C8.45753 1.6512 6.10313 3.9912 6.10313 6.8784C6.10313 9.7656 8.45753 12.1068 11.3603 12.1068C14.2631 12.1068 16.6175 9.7668 16.6175 6.8784C16.6175 3.99 14.2643 1.6512 11.3615 1.6512Z" fill="var(--fill-0, #1B59F8)"/>
</g>
<defs>
<clipPath id="clip0_668_59676">
<rect width="24" height="24" fill="white"/>
</clipPath>
</defs>
</svg>
