<svg preserveAspectRatio="none" width="100%" height="100%" overflow="visible" style="display: block;" viewBox="0 0 20 20" fill="none" xmlns="http://www.w3.org/2000/svg">
<g id="streamline-freehand:security-user-lock" clip-path="url(#clip0_486_59096)">
<path id="Vector" d="M8.88833 16.8208C8.65134 16.2537 8.25836 15.7653 7.755 15.4125C7.46752 15.2126 7.15729 15.0475 6.83083 14.9208C7.2192 14.5492 7.49011 14.0718 7.61007 13.5478C7.73004 13.0238 7.6938 12.4761 7.50583 11.9725C7.2453 11.2229 6.70285 10.6043 5.99365 10.2482C5.28445 9.89201 4.46436 9.8263 3.7075 10.065C3.2116 10.2187 2.76642 10.5035 2.41894 10.8893C2.07146 11.275 1.83459 11.7475 1.73333 12.2567C1.60742 12.7476 1.61275 13.263 1.74876 13.7512C1.88478 14.2394 2.14672 14.6833 2.50833 15.0383L2.56667 15.0883C2.35651 15.1759 2.15317 15.2789 1.95833 15.3967C1.71333 15.5544 1.48833 15.7378 1.28333 15.9467C1.07526 16.1613 0.888288 16.3954 0.725 16.6458C0.383422 17.1993 0.141169 17.8082 0.0091669 18.445C-0.00912124 18.5135 -0.0002621 18.5864 0.0338962 18.6485C0.0680544 18.7106 0.124874 18.7571 0.1925 18.7783C0.25991 18.7992 0.332844 18.7925 0.395323 18.7597C0.457802 18.7269 0.504733 18.6707 0.525834 18.6033C0.745442 18.0654 1.04308 17.5628 1.40917 17.1117C1.55917 16.9283 1.72583 16.7533 1.90083 16.5783C2.07583 16.4033 2.23333 16.2533 2.425 16.0958C2.68833 15.8714 2.96611 15.6658 3.25833 15.4792C3.33056 15.5069 3.40556 15.5264 3.48333 15.5375C4.00897 15.6337 4.5477 15.6337 5.07333 15.5375C5.11515 15.5302 5.15451 15.5126 5.18794 15.4865C5.22137 15.4603 5.24784 15.4263 5.265 15.3875C5.25409 15.4228 5.25409 15.4605 5.265 15.4958C5.29102 15.5606 5.34136 15.6125 5.40523 15.6405C5.4691 15.6686 5.54141 15.6705 5.60667 15.6458C5.80954 15.5732 6.0049 15.4811 6.19 15.3708C6.53056 15.5875 6.85 15.8319 7.14833 16.1042C7.325 16.2708 7.49139 16.4486 7.6475 16.6375C7.80583 16.8253 7.9475 17.0253 8.0725 17.2375C8.36833 17.7658 8.60833 18.3242 8.78917 18.9025C8.79509 18.9588 8.8188 19.0118 8.85686 19.0538C8.89492 19.0957 8.94534 19.1245 9.00083 19.1358C9.0377 19.1432 9.07571 19.1428 9.11238 19.1345C9.14905 19.1262 9.18355 19.1102 9.21361 19.0876C9.24367 19.065 9.26862 19.0363 9.28681 19.0034C9.305 18.9705 9.31603 18.9341 9.31917 18.8967C9.32287 18.8591 9.31802 18.8212 9.305 18.7858C9.25905 18.1145 9.11878 17.453 8.88833 16.8208ZM5.47333 15.1542C5.43708 15.1684 5.40464 15.1908 5.3786 15.2197C5.35256 15.2487 5.33363 15.2833 5.32333 15.3208V15.2792C5.31926 15.2484 5.30908 15.2187 5.2934 15.192C5.27772 15.1652 5.25685 15.1418 5.23202 15.1231C5.20719 15.1045 5.17889 15.091 5.14878 15.0835C5.11867 15.0759 5.08735 15.0745 5.05667 15.0792C1.825 15.4042 2.50833 12.6975 2.50833 12.4808C2.58691 12.1261 2.75762 11.7983 3.00327 11.5306C3.24891 11.2628 3.56081 11.0646 3.9075 10.9558C4.45506 10.7698 5.05311 10.801 5.5784 11.0428C6.10368 11.2847 6.51616 11.7189 6.73083 12.2558C6.83937 12.5263 6.89289 12.8157 6.88826 13.107C6.88362 13.3984 6.82092 13.6859 6.70383 13.9528C6.58673 14.2196 6.4176 14.4605 6.20631 14.6612C5.99503 14.8619 5.74585 15.0184 5.47333 15.1217V15.1542ZM19.45 6.21667L19.2417 6.075C19.4548 5.58841 19.6033 5.07599 19.6833 4.55083C19.7783 3.85103 19.6863 3.13856 19.4167 2.48583C19.2095 2.06888 18.9056 1.70757 18.5302 1.43212C18.1549 1.15666 17.7191 0.975062 17.2592 0.9025C16.7973 0.820273 16.3224 0.85331 15.8764 0.998679C15.4304 1.14405 15.0272 1.39725 14.7025 1.73583C14.4216 2.05905 14.2039 2.43219 14.0608 2.83583C13.8742 3.3775 13.7325 3.93583 13.6358 4.50083L13.0858 4.40083H13.0275C12.9824 4.38921 12.9348 4.3909 12.8906 4.40568C12.8464 4.42047 12.8074 4.44773 12.7783 4.48417C12.4555 4.87196 12.176 5.29391 11.945 5.7425C11.7067 6.18083 11.4983 6.63333 11.32 7.1C11.0348 7.64179 10.8142 8.21515 10.6625 8.80833C10.6017 9.1225 10.6308 9.44917 10.7458 9.74833C10.8667 10.0275 11.0525 10.2733 11.2875 10.465C11.6 10.7125 11.945 10.9167 12.3125 11.0733C12.9381 11.3678 13.5819 11.615 14.2442 11.815C14.9053 12.0128 15.5772 12.1656 16.26 12.2733C16.6261 12.3417 16.9956 12.3722 17.3683 12.365C17.6576 12.3566 17.9417 12.2855 18.2008 12.1567C18.5606 11.9752 18.8527 11.6831 19.0342 11.3233C19.2331 10.86 19.3886 10.3822 19.5008 9.89C19.785 9.09417 19.9533 8.26083 20 7.41667C20.0017 7.18858 19.9534 6.9629 19.8583 6.75555C19.7633 6.54821 19.6239 6.36425 19.45 6.21667ZM14.6442 3.06C14.7875 2.74583 14.9908 2.4625 15.2442 2.22667C15.4965 2.0108 15.7963 1.8576 16.1191 1.77954C16.4419 1.70149 16.7786 1.70079 17.1017 1.7775C17.4283 1.82571 17.7395 1.94851 18.011 2.13638C18.2826 2.32425 18.5072 2.57214 18.6675 2.86083C18.9242 3.355 19.0392 3.91083 19.0008 4.46833C18.9705 4.92768 18.8809 5.38117 18.7342 5.8175C18.5163 5.7348 18.2937 5.66523 18.0675 5.60917L16.6675 5.27583C15.9433 5.0925 15.2442 4.88417 14.5358 4.70917L14.0692 4.60917C14.2214 4.07806 14.4131 3.56167 14.6442 3.06ZM19.1667 7.73333C19.0492 8.3782 18.8735 9.01107 18.6417 9.62417C18.5472 10.0541 18.4075 10.4728 18.225 10.8733C18.1292 11.0746 17.9757 11.2428 17.7842 11.3567C17.6297 11.4211 17.4686 11.4544 17.3008 11.4567C16.9913 11.4646 16.6818 11.4423 16.3767 11.39C15.7332 11.2885 15.0963 11.1494 14.4692 10.9733C13.8377 10.8036 13.2173 10.5948 12.6117 10.3483C12.3151 10.2289 12.0351 10.0721 11.7783 9.88167C11.6264 9.77094 11.5035 9.62514 11.42 9.45667C11.3325 9.20889 11.3325 8.93861 11.42 8.69083C11.5617 8.22083 11.7283 7.75972 11.92 7.3075C12.0767 6.85528 12.26 6.41417 12.47 5.98417C12.6239 5.63417 12.8072 5.30083 13.02 4.98417C13.495 5.07583 13.9617 5.1925 14.4033 5.3175C15.1108 5.5175 15.8017 5.75083 16.5267 5.95917L17.8683 6.35917C18.115 6.42861 18.3564 6.51472 18.5925 6.6175C18.7269 6.68195 18.8519 6.7625 18.9675 6.85917C19.0682 6.97831 19.1389 7.11989 19.1735 7.272C19.2082 7.42411 19.2058 7.58232 19.1667 7.73333Z" fill="var(--fill-0, #717182)"/>
<path id="Vector_2" d="M15.6017 7.48333C14.7683 7.225 13.6025 7.91667 14.3442 8.75C15.3275 9.87417 17.4 8.075 15.6017 7.48333ZM9.68833 4.62583C8.91607 4.45385 8.11015 4.51475 7.3725 4.80083C7.06038 4.92196 6.75927 5.06972 6.4725 5.2425C6.19328 5.42316 5.9338 5.63264 5.69833 5.8675C5.13533 6.41706 4.74197 7.11673 4.565 7.88333C4.56368 7.93555 4.57931 7.9868 4.60956 8.02939C4.6398 8.07198 4.68304 8.10362 4.73278 8.11958C4.78252 8.13553 4.83609 8.13494 4.88547 8.11789C4.93485 8.10084 4.97737 8.06825 5.00667 8.025C5.28765 7.42142 5.71787 6.89943 6.25667 6.50833C6.47667 6.32778 6.70722 6.16111 6.94833 6.00833C7.18556 5.85056 7.4325 5.70889 7.68917 5.58333C8.26919 5.27205 8.92233 5.12266 9.58 5.15083C9.64833 5.16009 9.71759 5.14251 9.77325 5.10179C9.8289 5.06107 9.86661 5.00037 9.87847 4.93245C9.89033 4.86452 9.87542 4.79463 9.83686 4.73746C9.7983 4.68029 9.73909 4.64029 9.67167 4.62583H9.68833ZM15.2275 12.4808C15.1646 12.4712 15.1004 12.4868 15.0489 12.5243C14.9974 12.5617 14.9627 12.618 14.9525 12.6808C14.7368 13.3644 14.379 13.9945 13.9025 14.53C13.7153 14.7686 13.5121 14.9941 13.2942 15.205C13.0859 15.4197 12.8635 15.6202 12.6283 15.805C12.0925 16.2486 11.4314 16.5135 10.7375 16.5625C10.6933 16.5612 10.6494 16.5705 10.6095 16.5898C10.5697 16.6091 10.5351 16.6377 10.5087 16.6732C10.4822 16.7087 10.4648 16.75 10.4578 16.7937C10.4507 16.8374 10.4544 16.8822 10.4683 16.9242C10.4855 16.974 10.5171 17.0176 10.5591 17.0495C10.6011 17.0814 10.6516 17.1001 10.7042 17.1033C11.5482 17.1739 12.3919 16.9629 13.1033 16.5033C13.4067 16.32 13.6844 16.1036 13.9367 15.8542C14.1872 15.5992 14.4092 15.3214 14.6025 15.0208C15.0606 14.3388 15.3465 13.5559 15.4358 12.7392C15.4387 12.6781 15.4191 12.6181 15.3807 12.5704C15.3423 12.5228 15.2878 12.491 15.2275 12.4808Z" fill="var(--fill-0, #717182)"/>
</g>
<defs>
<clipPath id="clip0_486_59096">
<rect width="20" height="20" fill="white"/>
</clipPath>
</defs>
</svg>
