<svg preserveAspectRatio="none" width="100%" height="100%" overflow="visible" style="display: block;" viewBox="0 0 6 6" fill="none" xmlns="http://www.w3.org/2000/svg">
<path id="Union" d="M4.92719 0.18403C5.17264 -0.0610356 5.5704 -0.0610001 5.81587 0.18403C6.06141 0.429579 6.06141 0.828129 5.81587 1.07368L3.88911 2.99946L5.81587 4.92719C6.06141 5.17274 6.06141 5.57032 5.81587 5.81587C5.57032 6.06141 5.17274 6.06141 4.92719 5.81587L2.99946 3.88911L1.07368 5.81587C0.828129 6.06141 0.429579 6.06141 0.18403 5.81587C-0.0610001 5.5704 -0.0610356 5.17264 0.18403 4.92719L2.11079 2.99946L0.18403 1.07368C-0.061255 0.828108 -0.0614314 0.42949 0.18403 0.18403C0.42949 -0.0614314 0.828108 -0.061255 1.07368 0.18403L2.99946 2.11079L4.92719 0.18403Z" fill="var(--fill-0, white)"/>
</svg>
