<svg preserveAspectRatio="none" width="100%" height="100%" overflow="visible" style="display: block;" viewBox="0 0 16 16" fill="none" xmlns="http://www.w3.org/2000/svg">
<g id="qlementine-icons:task-16">
<path id="Vector" d="M11.9 7.85C11.9911 7.7557 12.0415 7.6294 12.0403 7.4983C12.0392 7.3672 11.9866 7.24179 11.8939 7.14909C11.8012 7.05639 11.6758 7.0038 11.5447 7.00266C11.4136 7.00152 11.2873 7.05192 11.193 7.143L7.543 10.793L5.893 9.143C5.7987 9.05192 5.6724 9.00152 5.5413 9.00266C5.4102 9.0038 5.28479 9.05639 5.19209 9.14909C5.09939 9.24179 5.0468 9.3672 5.04566 9.4983C5.04452 9.6294 5.09492 9.7557 5.186 9.85L7.186 11.85C7.27976 11.9437 7.40692 11.9964 7.5395 11.9964C7.67208 11.9964 7.79924 11.9437 7.893 11.85L11.893 7.85H11.9Z" fill="var(--fill-0, black)"/>
<path id="Vector_2" fill-rule="evenodd" clip-rule="evenodd" d="M4.08 2.02C4.18036 1.72288 4.37132 1.46468 4.62603 1.28172C4.88074 1.09876 5.18639 1.00024 5.5 1H5.768C6.114 0.402 6.76 0 7.498 0H8.498C9.238 0 9.888 0.402 10.228 1H10.496C10.8096 1.00024 11.1153 1.09876 11.37 1.28172C11.6247 1.46468 11.8156 1.72288 11.916 2.02C12.545 2.054 12.986 2.133 13.356 2.323C13.9191 2.61164 14.3774 3.06987 14.666 3.633C14.993 4.275 14.993 5.113 14.993 6.793V11.193C14.993 12.873 14.993 13.713 14.666 14.353C14.3785 14.9169 13.9199 15.3755 13.356 15.663C12.714 15.99 11.876 15.99 10.196 15.99H5.796C4.116 15.99 3.276 15.99 2.636 15.663C2.07206 15.3755 1.61352 14.9169 1.326 14.353C0.999 13.711 0.999 12.873 0.999 11.193V6.793C0.999 5.113 0.999 4.273 1.326 3.633C1.61464 3.06987 2.07287 2.61164 2.636 2.323C3.008 2.134 3.446 2.054 4.076 2.02H4.08ZM6.06 1.996C6.14777 1.996 6.23399 1.97289 6.30999 1.92901C6.386 1.88513 6.44912 1.82201 6.493 1.746L6.637 1.496C6.72472 1.34365 6.85106 1.21712 7.00327 1.12916C7.15549 1.04121 7.3282 0.99493 7.504 0.995H8.504C8.6797 0.994829 8.85235 1.04095 9.00455 1.12873C9.15676 1.21651 9.28315 1.34284 9.371 1.495L9.515 1.745C9.55888 1.82101 9.622 1.88413 9.69801 1.92801C9.77402 1.97189 9.86023 1.995 9.948 1.995H10.504C10.6366 1.995 10.7638 2.04768 10.8576 2.14145C10.9513 2.23521 11.004 2.36239 11.004 2.495V3.495C11.004 3.62761 10.9513 3.75479 10.8576 3.84855C10.7638 3.94232 10.6366 3.995 10.504 3.995H5.504C5.37139 3.995 5.24421 3.94232 5.15045 3.84855C5.05668 3.75479 5.004 3.62761 5.004 3.495V2.495C5.004 2.36239 5.05668 2.23521 5.15045 2.14145C5.24421 2.04768 5.37139 1.995 5.504 1.995L6.06 1.996ZM4 3.026L3.911 3.032C3.473 3.068 3.248 3.133 3.092 3.212C2.71569 3.40374 2.40974 3.70969 2.218 4.086C2.138 4.242 2.073 4.467 2.038 4.906C2.001 5.356 2 5.936 2 6.796V11.196C2 12.052 2.001 12.636 2.038 13.086C2.074 13.523 2.139 13.748 2.218 13.904C2.41 14.28 2.716 14.586 3.092 14.778C3.248 14.858 3.473 14.923 3.911 14.958C4.361 14.995 4.941 14.996 5.801 14.996H10.201C11.058 14.996 11.641 14.995 12.091 14.958C12.529 14.922 12.754 14.858 12.91 14.778C13.286 14.586 13.592 14.28 13.784 13.904C13.864 13.748 13.929 13.524 13.964 13.085C14.001 12.635 14.002 12.055 14.002 11.195V6.795C14.002 5.938 14.001 5.355 13.964 4.905C13.928 4.467 13.863 4.242 13.784 4.086C13.5923 3.70969 13.2863 3.40374 12.91 3.212C12.754 3.132 12.529 3.067 12.091 3.032L12.002 3.026V3.495C12.002 3.89282 11.844 4.27436 11.5627 4.55566C11.2814 4.83696 10.8998 4.995 10.502 4.995H5.502C5.10418 4.995 4.72264 4.83696 4.44134 4.55566C4.16004 4.27436 4.002 3.89282 4.002 3.495V3.025L4 3.026Z" fill="var(--fill-0, black)"/>
</g>
</svg>
