<svg preserveAspectRatio="none" width="100%" height="100%" overflow="visible" style="display: block;" viewBox="0 0 20 22" fill="none" xmlns="http://www.w3.org/2000/svg">
<g id="Group">
<path id="Vector" d="M16.3742 8.335V7.63C16.3742 3.761 13.3502 0.625 9.62417 0.625C5.89817 0.625 2.87417 3.761 2.87417 7.63V8.335C2.87538 9.17655 2.63522 10.0008 2.18217 10.71L1.07417 12.435C0.0631712 14.01 0.835171 16.151 2.59417 16.649C7.19046 17.9507 12.0579 17.9507 16.6542 16.649C18.4132 16.151 19.1852 14.01 18.1742 12.436L17.0662 10.711C16.6128 10.0019 16.3723 9.17765 16.3732 8.336L16.3742 8.335Z" stroke="var(--stroke-0, #717182)" stroke-width="1.25"/>
<path id="Vector_2" d="M5.12411 17.625C5.77911 19.373 7.54611 20.625 9.62411 20.625C11.7021 20.625 13.4691 19.373 14.1241 17.625" stroke="var(--stroke-0, #717182)" stroke-width="1.25" stroke-linecap="round"/>
</g>
</svg>
