<svg preserveAspectRatio="none" width="100%" height="100%" overflow="visible" style="display: block;" viewBox="0 0 20 20" fill="none" xmlns="http://www.w3.org/2000/svg">
<g id="Group">
<path id="Vector" d="M12.5001 9.375H7.50012C7.50012 8.71196 7.76352 8.07607 8.23236 7.60723C8.7012 7.13839 9.33708 6.875 10.0001 6.875C10.6632 6.875 11.299 7.13839 11.7679 7.60723C12.2367 8.07607 12.5001 8.71196 12.5001 9.375Z" stroke="var(--stroke-0, white)" stroke-width="1.25" stroke-linecap="round" stroke-linejoin="round"/>
<path id="Vector_2" d="M8.12512 5C8.12512 5.49728 8.32267 5.97419 8.6743 6.32582C9.02593 6.67746 9.50284 6.875 10.0001 6.875C10.4974 6.875 10.9743 6.67746 11.3259 6.32582C11.6776 5.97419 11.8751 5.49728 11.8751 5C11.8751 4.50272 11.6776 4.02581 11.3259 3.67417C10.9743 3.32254 10.4974 3.125 10.0001 3.125C9.50284 3.125 9.02593 3.32254 8.6743 3.67417C8.32267 4.02581 8.12512 4.50272 8.12512 5Z" stroke="var(--stroke-0, white)" stroke-width="1.25" stroke-linecap="round" stroke-linejoin="round"/>
<path id="Vector_3" d="M5.62512 0.625H14.3751C14.3751 0.625 16.8751 0.625 16.8751 3.125V6.875C16.8751 6.875 16.8751 9.375 14.3751 9.375H5.62512C5.62512 9.375 3.12512 9.375 3.12512 6.875V3.125C3.12512 3.125 3.12512 0.625 5.62512 0.625ZM1.87512 15C1.87512 15.4973 2.07267 15.9742 2.4243 16.3258C2.77593 16.6775 3.25284 16.875 3.75012 16.875C4.2474 16.875 4.72432 16.6775 5.07595 16.3258C5.42758 15.9742 5.62512 15.4973 5.62512 15C5.62512 14.5027 5.42758 14.0258 5.07595 13.6742C4.72432 13.3225 4.2474 13.125 3.75012 13.125C3.25284 13.125 2.77593 13.3225 2.4243 13.6742C2.07267 14.0258 1.87512 14.5027 1.87512 15Z" stroke="var(--stroke-0, white)" stroke-width="1.25" stroke-linecap="round" stroke-linejoin="round"/>
<path id="Vector_4" d="M6.87512 19.375C6.57305 18.8086 6.12273 18.335 5.5723 18.0047C5.02187 17.6745 4.39203 17.5 3.75012 17.5C3.10822 17.5 2.47838 17.6745 1.92795 18.0047C1.37752 18.335 0.927197 18.8086 0.625123 19.375M14.3751 15C14.3751 15.4973 14.5727 15.9742 14.9243 16.3258C15.2759 16.6775 15.7528 16.875 16.2501 16.875C16.7474 16.875 17.2243 16.6775 17.5759 16.3258C17.9276 15.9742 18.1251 15.4973 18.1251 15C18.1251 14.5027 17.9276 14.0258 17.5759 13.6742C17.2243 13.3225 16.7474 13.125 16.2501 13.125C15.7528 13.125 15.2759 13.3225 14.9243 13.6742C14.5727 14.0258 14.3751 14.5027 14.3751 15Z" stroke="var(--stroke-0, white)" stroke-width="1.25" stroke-linecap="round" stroke-linejoin="round"/>
<path id="Vector_5" d="M19.3751 19.375C19.073 18.8086 18.6227 18.335 18.0723 18.0047C17.5219 17.6745 16.892 17.5 16.2501 17.5C15.6082 17.5 14.9784 17.6745 14.428 18.0047C13.8775 18.335 13.4272 18.8086 13.1251 19.375M8.12512 15C8.12512 15.4973 8.32267 15.9742 8.6743 16.3258C9.02593 16.6775 9.50284 16.875 10.0001 16.875C10.4974 16.875 10.9743 16.6775 11.3259 16.3258C11.6776 15.9742 11.8751 15.4973 11.8751 15C11.8751 14.5027 11.6776 14.0258 11.3259 13.6742C10.9743 13.3225 10.4974 13.125 10.0001 13.125C9.50284 13.125 9.02593 13.3225 8.6743 13.6742C8.32267 14.0258 8.12512 14.5027 8.12512 15Z" stroke="var(--stroke-0, white)" stroke-width="1.25" stroke-linecap="round" stroke-linejoin="round"/>
<path id="Vector_6" d="M13.1251 19.375C12.8231 18.8086 12.3727 18.335 11.8223 18.0047C11.2719 17.6745 10.642 17.5 10.0001 17.5C9.35822 17.5 8.72838 17.6745 8.17795 18.0047C7.62752 18.335 7.1772 18.8086 6.87512 19.375" stroke="var(--stroke-0, white)" stroke-width="1.25" stroke-linecap="round" stroke-linejoin="round"/>
</g>
</svg>
