<svg preserveAspectRatio="none" width="100%" height="100%" overflow="visible" style="display: block;" viewBox="0 0 63 131" fill="none" xmlns="http://www.w3.org/2000/svg">
<path id="pie1" d="M42.6677 0.833883C44.7569 -0.630677 47.649 -0.1269 49.0004 2.03722C55.2067 11.976 59.4349 23.0421 61.4336 34.6243C63.6949 47.7279 63.047 61.17 59.536 73.9942C56.0251 86.8183 49.7373 98.7093 41.1201 108.821C33.5042 117.758 24.2341 125.111 13.8372 130.483C11.5712 131.654 8.82793 130.611 7.7786 128.287L0.409415 111.96C-0.637393 109.641 0.401262 106.927 2.63597 105.71C9.42358 102.014 15.4896 97.0958 20.5234 91.189C26.5554 84.1107 30.9568 75.7871 33.4145 66.8102C35.8722 57.8333 36.3257 48.4238 34.7428 39.2513C33.4215 31.5944 30.7082 24.2597 26.7511 17.6076C25.4507 15.4215 25.9425 12.5585 28.0254 11.0983L42.6677 0.833883Z" fill="var(--fill-0, #F27944)"/>
</svg>
