<svg preserveAspectRatio="none" width="100%" height="100%" overflow="visible" style="display: block;" viewBox="0 0 6 6" fill="none" xmlns="http://www.w3.org/2000/svg">
<path id="Union" d="M4.92635 0.184162C5.1719 -0.0613873 5.57045 -0.0613873 5.816 0.184162C6.06127 0.429608 6.06114 0.827311 5.816 1.07283L3.88826 2.99959L5.816 4.92635C6.06152 5.1719 6.06154 5.57046 5.816 5.816C5.57046 6.06154 5.1719 6.06152 4.92635 5.816L2.99959 3.88826L1.07283 5.816C0.827311 6.06114 0.429608 6.06127 0.184162 5.816C-0.0613873 5.57045 -0.0613873 5.1719 0.184162 4.92635L2.10994 2.99959L0.184162 1.07283C-0.0612022 0.82727 -0.0613256 0.429649 0.184162 0.184162C0.429649 -0.0613256 0.82727 -0.0612022 1.07283 0.184162L2.99959 2.10994L4.92635 0.184162Z" fill="var(--fill-0, white)"/>
</svg>
