<svg xmlns="http://www.w3.org/2000/svg" width="20" height="20" viewBox="0 0 20 20" fill="none">
  <g clip-path="url(#clip0_611_34548)">
    <path opacity="0.5" d="M15.0007 8.33325H10.834" stroke="#404040" stroke-width="1.5" stroke-linecap="round"/>
    <path d="M1.66699 5.79163C1.66699 5.05579 1.66699 4.68829 1.72533 4.38163C1.84968 3.72316 2.16961 3.11746 2.64337 2.64355C3.11713 2.16964 3.72273 1.84952 4.38116 1.72496C4.68866 1.66663 5.05699 1.66663 5.79199 1.66663C6.11366 1.66663 6.27532 1.66663 6.43032 1.68079C7.09786 1.74348 7.73098 2.00602 8.24699 2.43413C8.36699 2.53329 8.48032 2.64663 8.70866 2.87496L9.16699 3.33329C9.84699 4.01329 10.187 4.35329 10.5937 4.57913C10.8172 4.7037 11.0543 4.80213 11.3003 4.87246C11.7487 4.99996 12.2295 4.99996 13.1903 4.99996H13.502C15.6953 4.99996 16.7928 4.99996 17.5053 5.64163C17.5714 5.69996 17.6337 5.76218 17.692 5.82829C18.3337 6.54079 18.3337 7.63829 18.3337 9.83162V11.6666C18.3337 14.8091 18.3337 16.3808 17.357 17.3566C16.3803 18.3325 14.8095 18.3333 11.667 18.3333H8.33366C5.19116 18.3333 3.61949 18.3333 2.64366 17.3566C1.66783 16.38 1.66699 14.8091 1.66699 11.6666V5.79163Z" stroke="#404040" stroke-width="1.5"/>
  </g>
  <defs>
    <clipPath id="clip0_611_34548">
      <rect width="20" height="20" fill="white"/>
    </clipPath>
  </defs>
</svg>
