<svg preserveAspectRatio="none" width="100%" height="100%" overflow="visible" style="display: block;" viewBox="0 0 25 24" fill="none" xmlns="http://www.w3.org/2000/svg">
<g id="lineicons:chevron-down">
<path id="Vector" d="M5.548 9.095C5.68863 8.95455 5.87925 8.87566 6.078 8.87566C6.27675 8.87566 6.46737 8.95455 6.608 9.095L12.328 14.815L18.048 9.095C18.1902 8.96252 18.3782 8.8904 18.5725 8.89382C18.7668 8.89725 18.9522 8.97597 19.0896 9.11338C19.227 9.25079 19.3057 9.43618 19.3092 9.63048C19.3126 9.82478 19.2405 10.0128 19.108 10.155L12.858 16.405C12.7174 16.5455 12.5268 16.6243 12.328 16.6243C12.1292 16.6243 11.9386 16.5455 11.798 16.405L5.548 10.155C5.40755 10.0144 5.32866 9.82375 5.32866 9.625C5.32866 9.42625 5.40755 9.23563 5.548 9.095Z" fill="var(--fill-0, #717182)"/>
</g>
</svg>
