<svg preserveAspectRatio="none" width="100%" height="100%" overflow="visible" style="display: block;" viewBox="0 0 17 18" fill="none" xmlns="http://www.w3.org/2000/svg">
<g id="Group">
<path id="Vector" d="M10.625 17.2917H0.625V3.125C0.625 1.05667 1.05667 0.625 3.125 0.625H8.125C10.1933 0.625 10.625 1.05667 10.625 3.125V17.2917ZM10.625 17.2917V5.625H13.125C15.1933 5.625 15.625 6.05667 15.625 8.125V17.2917H10.625Z" stroke="var(--stroke-0, #F2761B)" stroke-width="1.25" stroke-linejoin="round"/>
<path id="Vector_2" d="M4.79167 3.95833H6.45833M4.79167 6.45833H6.45833M4.79167 8.95833H6.45833" stroke="var(--stroke-0, #F2761B)" stroke-width="1.25" stroke-linecap="round" stroke-linejoin="round"/>
<path id="Vector_3" d="M7.70833 17.2917V13.9583C7.70833 13.1725 7.70833 12.78 7.46417 12.5358C7.22 12.2917 6.8275 12.2917 6.04167 12.2917H5.20833C4.4225 12.2917 4.03 12.2917 3.78583 12.5358C3.54167 12.78 3.54167 13.1725 3.54167 13.9583V17.2917" stroke="var(--stroke-0, #F2761B)" stroke-width="1.25" stroke-linejoin="round"/>
</g>
</svg>
