<svg preserveAspectRatio="none" width="100%" height="100%" overflow="visible" style="display: block;" viewBox="0 0 14 14" fill="none" xmlns="http://www.w3.org/2000/svg">
<g id="Group">
<path id="Vector" d="M0.46875 6.40625C0.46875 4.04938 0.46875 2.87062 1.20125 2.13875C1.93375 1.40687 3.11188 1.40625 5.46875 1.40625H7.96875C10.3256 1.40625 11.5044 1.40625 12.2362 2.13875C12.9681 2.87125 12.9688 4.04938 12.9688 6.40625V7.65625C12.9688 10.0131 12.9687 11.1919 12.2362 11.9237C11.5037 12.6556 10.3256 12.6562 7.96875 12.6562H5.46875C3.11188 12.6562 1.93313 12.6562 1.20125 11.9237C0.469375 11.1912 0.46875 10.0131 0.46875 7.65625V6.40625Z" stroke="var(--stroke-0, #040110)" stroke-width="0.9375"/>
<path id="Vector_2" d="M3.59375 1.40625V0.46875M9.84375 1.40625V0.46875M0.78125 4.53125H12.6563" stroke="var(--stroke-0, #040110)" stroke-width="0.9375" stroke-linecap="round"/>
<path id="Vector_3" d="M10.4688 9.53125C10.4688 9.69701 10.4029 9.85598 10.2857 9.97319C10.1685 10.0904 10.0095 10.1562 9.84375 10.1562C9.67799 10.1562 9.51902 10.0904 9.40181 9.97319C9.2846 9.85598 9.21875 9.69701 9.21875 9.53125C9.21875 9.36549 9.2846 9.20652 9.40181 9.08931C9.51902 8.9721 9.67799 8.90625 9.84375 8.90625C10.0095 8.90625 10.1685 8.9721 10.2857 9.08931C10.4029 9.20652 10.4688 9.36549 10.4688 9.53125ZM10.4688 7.03125C10.4688 7.19701 10.4029 7.35598 10.2857 7.47319C10.1685 7.5904 10.0095 7.65625 9.84375 7.65625C9.67799 7.65625 9.51902 7.5904 9.40181 7.47319C9.2846 7.35598 9.21875 7.19701 9.21875 7.03125C9.21875 6.86549 9.2846 6.70652 9.40181 6.58931C9.51902 6.4721 9.67799 6.40625 9.84375 6.40625C10.0095 6.40625 10.1685 6.4721 10.2857 6.58931C10.4029 6.70652 10.4688 6.86549 10.4688 7.03125ZM7.34375 9.53125C7.34375 9.69701 7.2779 9.85598 7.16069 9.97319C7.04348 10.0904 6.88451 10.1562 6.71875 10.1562C6.55299 10.1562 6.39402 10.0904 6.27681 9.97319C6.1596 9.85598 6.09375 9.69701 6.09375 9.53125C6.09375 9.36549 6.1596 9.20652 6.27681 9.08931C6.39402 8.9721 6.55299 8.90625 6.71875 8.90625C6.88451 8.90625 7.04348 8.9721 7.16069 9.08931C7.2779 9.20652 7.34375 9.36549 7.34375 9.53125ZM7.34375 7.03125C7.34375 7.19701 7.2779 7.35598 7.16069 7.47319C7.04348 7.5904 6.88451 7.65625 6.71875 7.65625C6.55299 7.65625 6.39402 7.5904 6.27681 7.47319C6.1596 7.35598 6.09375 7.19701 6.09375 7.03125C6.09375 6.86549 6.1596 6.70652 6.27681 6.58931C6.39402 6.4721 6.55299 6.40625 6.71875 6.40625C6.88451 6.40625 7.04348 6.4721 7.16069 6.58931C7.2779 6.70652 7.34375 6.86549 7.34375 7.03125ZM4.21875 9.53125C4.21875 9.69701 4.1529 9.85598 4.03569 9.97319C3.91848 10.0904 3.75951 10.1562 3.59375 10.1562C3.42799 10.1562 3.26902 10.0904 3.15181 9.97319C3.0346 9.85598 2.96875 9.69701 2.96875 9.53125C2.96875 9.36549 3.0346 9.20652 3.15181 9.08931C3.26902 8.9721 3.42799 8.90625 3.59375 8.90625C3.75951 8.90625 3.91848 8.9721 4.03569 9.08931C4.1529 9.20652 4.21875 9.36549 4.21875 9.53125ZM4.21875 7.03125C4.21875 7.19701 4.1529 7.35598 4.03569 7.47319C3.91848 7.5904 3.75951 7.65625 3.59375 7.65625C3.42799 7.65625 3.26902 7.5904 3.15181 7.47319C3.0346 7.35598 2.96875 7.19701 2.96875 7.03125C2.96875 6.86549 3.0346 6.70652 3.15181 6.58931C3.26902 6.4721 3.42799 6.40625 3.59375 6.40625C3.75951 6.40625 3.91848 6.4721 4.03569 6.58931C4.1529 6.70652 4.21875 6.86549 4.21875 7.03125Z" fill="var(--fill-0, #040110)"/>
</g>
</svg>
