<svg preserveAspectRatio="none" width="100%" height="100%" overflow="visible" style="display: block;" viewBox="0 0 24 24" fill="none" xmlns="http://www.w3.org/2000/svg">
<g id="stash:chevron-down-light">
<path id="Vector" fill-rule="evenodd" clip-rule="evenodd" d="M16.354 9.646C16.4006 9.69245 16.4375 9.74762 16.4627 9.80837C16.4879 9.86911 16.5009 9.93423 16.5009 10C16.5009 10.0658 16.4879 10.1309 16.4627 10.1916C16.4375 10.2524 16.4006 10.3076 16.354 10.354L12 14.707L7.646 10.354C7.55211 10.2601 7.49937 10.1328 7.49937 10C7.49937 9.86722 7.55211 9.73989 7.646 9.646C7.73989 9.55211 7.86722 9.49937 8 9.49937C8.13278 9.49937 8.26011 9.55211 8.354 9.646L12 13.293L15.646 9.646C15.6924 9.59944 15.7476 9.56249 15.8084 9.53729C15.8691 9.51208 15.9342 9.49911 16 9.49911C16.0658 9.49911 16.1309 9.51208 16.1916 9.53729C16.2524 9.56249 16.3076 9.59944 16.354 9.646Z" fill="var(--fill-0, #4D4D4D)"/>
</g>
</svg>
